<?xml version="1.0" encoding="UTF-8" standalone="no"?>
<svg width="50px" height="39px" viewBox="0 0 50 39" version="1.1" xmlns="http://www.w3.org/2000/svg" xmlns:xlink="http://www.w3.org/1999/xlink" xmlns:sketch="http://www.bohemiancoding.com/sketch/ns">
    <!-- Generator: Sketch 3.2.2 (9983) - http://www.bohemiancoding.com/sketch -->
    <title>bank</title>
    <desc>Created with Sketch.</desc>
    <defs></defs>
    <g id="Page-1" stroke="none" stroke-width="1" fill="none" fill-rule="evenodd" sketch:type="MSPage">
        <path d="M2.9073326,34.1405156 L0,39 L50,38.9131127 L47.2824091,34.1343094 L44.7790427,34.1343094 L44.7790427,14.0881604 L49.6694822,14.0881604 L49.6694822,7.10614258 L45.9725793,7.10614258 L25.3152161,0 L4.26612805,7.10614258 L0.471293916,7.10614258 L0.471293916,14.0881604 L5.05569837,14.0881604 L5.05569837,34.1343094 L2.9073326,34.1343094 L2.9073326,34.1405156 Z M21.0552087,14.0881604 L28.7734117,14.0881604 L28.7734117,34.1281031 L21.0552087,34.1281031 L21.0552087,14.0881604 L21.0552087,14.0881604 Z M33.3088505,14.0881604 L40.2497246,14.0881604 L40.2497246,34.1281031 L33.3088505,34.1281031 L33.3088505,14.0881604 L33.3088505,14.0881604 Z M16.5136492,34.1405156 L9.58501653,34.1405156 L9.58501653,14.1005729 L16.5136492,14.1005729 L16.5136492,34.1405156 L16.5136492,34.1405156 Z" id="Shape" fill="#000000" sketch:type="MSShapeGroup"></path>
    </g>
</svg>