<?xml version="1.0" encoding="UTF-8" standalone="no"?>
<svg width="50px" height="50px" viewBox="0 0 50 50" version="1.1" xmlns="http://www.w3.org/2000/svg" xmlns:xlink="http://www.w3.org/1999/xlink" xmlns:sketch="http://www.bohemiancoding.com/sketch/ns">
    <!-- Generator: Sketch 3.2.2 (9983) - http://www.bohemiancoding.com/sketch -->
    <title>book</title>
    <desc>Created with Sketch.</desc>
    <defs></defs>
    <g id="Page-1" stroke="none" stroke-width="1" fill="none" fill-rule="evenodd" sketch:type="MSPage">
        <path d="M18.8901358,31.3058745 L7.7770494,26.8603947 L7.7770494,30.6214417 L18.8901358,35.0669214 L18.8901358,31.3058745 L18.8901358,31.3058745 Z M18.8901358,19.767738 L7.7770494,15.3228138 L7.7770494,19.0838607 L18.8901358,23.5287849 L18.8901358,19.767738 L18.8901358,19.767738 Z M48.7783605,0.477511479 C48.0155997,-0.0391463743 47.0456212,-0.143589037 46.1895291,0.198627347 L24.9994445,8.67514941 L3.80824871,0.198627347 C2.95215662,-0.143589037 1.98328926,-0.0391463743 1.21941735,0.477511479 C0.456656519,0.994169332 0,1.85526575 0,2.77802779 L0,38.3329768 C0,39.4690685 0.691095753,40.4901622 1.74496122,40.9123772 L23.920024,49.7816704 C23.920024,49.7816704 24.3744583,49.9283346 24.4605675,49.9455565 C24.6383414,49.9800003 24.8188929,50 25,50 C25.179996,50 25.359992,49.9805559 25.5394325,49.9455565 C25.623875,49.9283346 26.0810871,49.7805593 26.0810871,49.7805593 L48.2539277,40.9123772 C49.3083487,40.4901622 50,39.4690685 50,38.3329768 L50,2.77802779 C49.9994445,1.85526575 49.5416769,0.994169332 48.7783605,0.477511479 L48.7783605,0.477511479 Z M22.2222839,44.3156525 L4.44490122,37.2052183 L4.44490122,6.07241603 L22.2222839,13.1845169 L22.2222839,44.3156525 L22.2222839,44.3156525 Z M45.5550988,37.2052183 L27.7777161,44.3156525 L27.7777161,13.1845169 L45.5550988,6.07241603 L45.5550988,37.2052183 L45.5550988,37.2052183 Z M42.2229506,26.8603947 L31.1098642,31.3058745 L31.1098642,35.0669214 L42.2229506,30.6214417 L42.2229506,26.8603947 L42.2229506,26.8603947 Z M42.2229506,15.3228138 L31.1098642,19.767738 L31.1098642,23.5287849 L42.2229506,19.0838607 L42.2229506,15.3228138 L42.2229506,15.3228138 Z" id="Shape" fill="#000000" sketch:type="MSShapeGroup"></path>
    </g>
</svg>