<?xml version="1.0" encoding="UTF-8" standalone="no"?>
<svg width="50px" height="50px" viewBox="0 0 50 50" version="1.1" xmlns="http://www.w3.org/2000/svg" xmlns:xlink="http://www.w3.org/1999/xlink" xmlns:sketch="http://www.bohemiancoding.com/sketch/ns">
    <!-- Generator: Sketch 3.2.2 (9983) - http://www.bohemiancoding.com/sketch -->
    <title>padlock</title>
    <desc>Created with Sketch.</desc>
    <defs></defs>
    <g id="Page-1" stroke="none" stroke-width="1" fill="none" fill-rule="evenodd" sketch:type="MSPage">
        <path d="M41.8,50 L8.2,50 C6.1,50 4,47.9166667 4,45.8333333 L4,25 C4,22.9166667 6.1,20.8333333 8.2,20.8333333 L10.3,20.8333333 L10.3,14.5833333 C10.3,6.25 16.6,0 25,0 C33.4,0 39.7,6.25 39.7,14.5833333 L39.7,20.8333333 L41.8,20.8333333 C43.9,20.8333333 46,22.9166667 46,25 L46,45.8333333 C46,47.9166667 43.9,50 41.8,50 L41.8,50 Z M33.4,14.5833333 C33.4,10.4166667 29.2,6.25 25,6.25 C20.8,6.25 16.6,10.4166667 16.6,14.5833333 L16.6,20.8333333 L33.4,20.8333333 L33.4,14.5833333 L33.4,14.5833333 Z" id="Shape" fill="#000000" sketch:type="MSShapeGroup"></path>
    </g>
</svg>