<?xml version="1.0" encoding="UTF-8" standalone="no"?>
<svg width="512px" height="512px" viewBox="0 0 512 512" version="1.1" xmlns="http://www.w3.org/2000/svg" xmlns:xlink="http://www.w3.org/1999/xlink" xmlns:sketch="http://www.bohemiancoding.com/sketch/ns">
    <!-- Generator: Sketch 3.2.2 (9983) - http://www.bohemiancoding.com/sketch -->
    <title>alert</title>
    <desc>Created with Sketch.</desc>
    <defs></defs>
    <g id="Page-1" stroke="none" stroke-width="1" fill="none" fill-rule="evenodd" sketch:type="MSPage">
        <g id="alert" sketch:type="MSArtboardGroup" fill="#000000">
            <path d="M287.863964,26.7039306 L504.136036,449.681536 C521.734017,484.099073 504.6668,512 465.996132,512 L46.0038679,512 C7.34179921,512 -9.72981358,484.090852 7.86396428,449.681536 L224.136036,26.7039306 C241.734017,-7.71360673 270.270186,-7.70538531 287.863964,26.7039306 Z M283.96,335.8 L292.76,143.08 L218.84,143.08 L227.64,335.8 L283.96,335.8 Z M255.8,375.84 C233.8,375.84 216.2,393.88 216.2,415.44 C216.2,437.44 233.8,455.48 255.8,455.48 C278.24,455.48 295.84,437.44 295.84,415.44 C295.84,393.88 278.24,375.84 255.8,375.84 Z" id="Triangle-1" sketch:type="MSShapeGroup"></path>
        </g>
    </g>
</svg>