<?xml version="1.0" encoding="UTF-8" standalone="no"?>
<svg width="512px" height="512px" viewBox="0 0 512 512" version="1.1" xmlns="http://www.w3.org/2000/svg" xmlns:xlink="http://www.w3.org/1999/xlink" xmlns:sketch="http://www.bohemiancoding.com/sketch/ns">
    <!-- Generator: Sketch 3.2.2 (9983) - http://www.bohemiancoding.com/sketch -->
    <title>bank</title>
    <desc>Created with Sketch.</desc>
    <defs></defs>
    <g id="Page-1" stroke="none" stroke-width="1" fill="none" fill-rule="evenodd" sketch:type="MSPage">
        <g id="bank" sketch:type="MSArtboardGroup" fill="#000000">
            <path d="M29.7710858,406.159134 L0,456 L512,455.108848 L484.171869,406.095481 L458.537397,406.095481 L458.537397,200.493953 L508.615498,200.493953 L508.615498,128.883514 L470.759212,128.883514 L259.227812,56 L43.6851512,128.883514 L4.8260497,128.883514 L4.8260497,200.493953 L51.7703513,200.493953 L51.7703513,406.095481 L29.7710858,406.095481 L29.7710858,406.159134 Z M215.605337,200.493953 L294.639736,200.493953 L294.639736,406.031827 L215.605337,406.031827 L215.605337,200.493953 L215.605337,200.493953 Z M341.082629,200.493953 L412.15718,200.493953 L412.15718,406.031827 L341.082629,406.031827 L341.082629,200.493953 L341.082629,200.493953 Z M169.099767,406.159134 L98.1505692,406.159134 L98.1505692,200.62126 L169.099767,200.62126 L169.099767,406.159134 L169.099767,406.159134 Z" id="Shape" sketch:type="MSShapeGroup"></path>
        </g>
    </g>
</svg>