<?xml version="1.0" encoding="UTF-8" standalone="no"?>
<svg width="512px" height="512px" viewBox="0 0 512 512" version="1.1" xmlns="http://www.w3.org/2000/svg" xmlns:xlink="http://www.w3.org/1999/xlink" xmlns:sketch="http://www.bohemiancoding.com/sketch/ns">
    <!-- Generator: Sketch 3.2.2 (9983) - http://www.bohemiancoding.com/sketch -->
    <title>book</title>
    <desc>Created with Sketch.</desc>
    <defs></defs>
    <g id="Page-1" stroke="none" stroke-width="1" fill="none" fill-rule="evenodd" sketch:type="MSPage">
        <g id="book" sketch:type="MSArtboardGroup" fill="#000000">
            <path d="M193.43499,320.572154 L79.6369858,275.050442 L79.6369858,313.563563 L193.43499,359.085275 L193.43499,320.572154 L193.43499,320.572154 Z M193.43499,202.421637 L79.6369858,156.905613 L79.6369858,195.418734 L193.43499,240.934757 L193.43499,202.421637 L193.43499,202.421637 Z M499.490411,4.88971754 C491.67974,-0.400858873 481.747161,-1.47035174 472.980778,2.03394404 L255.994311,88.83353 L38.9964667,2.03394404 C30.2300838,-1.47035174 20.308882,-0.400858873 12.4868336,4.88971754 C4.67616275,10.180294 0,18.9979213 0,28.4470046 L0,392.529683 C0,404.163262 7.07682052,414.619261 17.8684029,418.942743 L244.941046,509.764305 C244.941046,509.764305 249.594453,511.266146 250.476212,511.442498 C252.296616,511.795203 254.145463,512 256,512 C257.843159,512 259.686318,511.800892 261.523788,511.442498 C262.38848,511.266146 267.070332,509.752927 267.070332,509.752927 L494.12022,418.942743 C504.917491,414.619261 512,404.163262 512,392.529683 L512,28.4470046 C511.994311,18.9979213 507.306771,10.180294 499.490411,4.88971754 L499.490411,4.88971754 Z M227.556188,453.792282 L45.5157885,380.981435 L45.5157885,62.1815402 L227.556188,135.009453 L227.556188,453.792282 L227.556188,453.792282 Z M466.484211,380.981435 L284.443812,453.792282 L284.443812,135.009453 L466.484211,62.1815402 L466.484211,380.981435 L466.484211,380.981435 Z M432.363014,275.050442 L318.56501,320.572154 L318.56501,359.085275 L432.363014,313.563563 L432.363014,275.050442 L432.363014,275.050442 Z M432.363014,156.905613 L318.56501,202.421637 L318.56501,240.934757 L432.363014,195.418734 L432.363014,156.905613 L432.363014,156.905613 Z" id="Shape" sketch:type="MSShapeGroup"></path>
        </g>
    </g>
</svg>