<?xml version="1.0" encoding="UTF-8" standalone="no"?>
<svg width="512px" height="512px" viewBox="0 0 512 512" version="1.1" xmlns="http://www.w3.org/2000/svg" xmlns:xlink="http://www.w3.org/1999/xlink" xmlns:sketch="http://www.bohemiancoding.com/sketch/ns">
    <!-- Generator: Sketch 3.2.2 (9983) - http://www.bohemiancoding.com/sketch -->
    <title>complaints</title>
    <desc>Created with Sketch.</desc>
    <defs></defs>
    <g id="Page-1" stroke="none" stroke-width="1" fill="none" fill-rule="evenodd" sketch:type="MSPage">
        <g id="complaints" sketch:type="MSArtboardGroup" fill="#000000">
            <path d="M256,429.616564 C396.206492,429.616564 512,335.971937 512,214.808282 C512,93.6446263 396.206492,0 256,0 C115.793508,0 1.11792611e-14,93.6446263 1.11792611e-14,214.808282 C1.11792611e-14,287.668071 42.2963932,352.297643 109.415372,391.338852 C104.863537,407.489128 62.4458172,482.995479 45.4317615,510.883214 C124.19873,523.197205 250.889406,429.616564 256,429.616564 Z M120.190432,455.678962 C139.344729,421.145116 159.21387,369.88187 159.21387,369.88187 L146.917386,363.543473 C77.3888184,332.622097 34.6135048,275.359076 34.6135048,214.808282 C34.6135048,122.750017 132.553198,43.5441434 256,43.5441434 C379.446802,43.5441434 477.386495,122.750017 477.386495,214.808282 C477.386495,306.866547 379.446802,386.07242 256,386.07242 C251.336809,386.07242 246.691188,385.95911 242.067288,385.733419 L235.766291,385.425871 C235.766291,385.425871 193.588374,426.704217 120.190432,455.678962 Z" id="Speech-Bubble" sketch:type="MSShapeGroup"></path>
        </g>
    </g>
</svg>