<?xml version="1.0" encoding="UTF-8" standalone="no"?>
<svg width="512px" height="512px" viewBox="0 0 512 512" version="1.1" xmlns="http://www.w3.org/2000/svg" xmlns:xlink="http://www.w3.org/1999/xlink" xmlns:sketch="http://www.bohemiancoding.com/sketch/ns">
    <!-- Generator: Sketch 3.2.2 (9983) - http://www.bohemiancoding.com/sketch -->
    <title>compensation</title>
    <desc>Created with Sketch.</desc>
    <defs></defs>
    <g id="Page-1" stroke="none" stroke-width="1" fill="none" fill-rule="evenodd" sketch:type="MSPage">
        <g id="compensation" sketch:type="MSArtboardGroup" fill="#000000">
            <path d="M388.198837,223.662467 L333.803528,223.048396 L265.562309,153.385163 L524.3386,84.0481975 L516.254653,67.380747 L248.842694,139.038715 L171.990946,62 L129.704359,104.406705 L113.872523,92.3534077 L0,242.791506 L272.014913,450 L409.705313,311.913614 L446.759165,296.652027 C476.403834,284.804304 484.022062,259.612806 485.972264,247.128465 L541,212.389026 L533.00999,195.921845 L468.768407,236.482358 C468.655946,248.881817 464.395666,270.010897 439.945363,279.782981 L358.867735,313.17226 C358.867735,313.17226 310.849615,337.550744 294.73332,345.456742 C286.081776,349.700861 274.043177,349.722081 264.882252,337.875685 C258.806722,330.021412 260.946123,314.855318 269.929758,309.104537 C293.403636,294.081683 362.643772,250.608643 391.401985,232.051233 C396.933734,228.482194 393.747786,223.724802 388.198837,223.662467 L388.198837,223.662467 Z M245.823452,407.41292 L23.8760913,239.512924 L49.23005,206.010911 L247.802763,405.129053 L245.823452,407.41292 Z M298.17859,399.557321 C295.046887,393.150028 288.811266,390.34493 283.001673,390.34493 C276.784575,390.34493 271.596824,393.339687 267.601157,400.748327 L76.989347,209.671464 C85.8830124,207.363724 90.0731698,201.140785 90.3986446,194.769301 C90.7055965,188.65777 86.9229441,182.718656 78.6789053,179.694722 L158.645156,99.5180108 C159.921917,107.836484 166.919625,112.308724 173.373553,112.308724 C179.200346,112.308724 185.074769,108.689286 187.08451,101.299214 L333.024241,247.590013 L260.236959,293.714301 C243.310946,304.439986 237.242031,329.010781 249.805888,348.016476 C261.773041,366.120296 284.249326,371.038168 303.243295,361.540626 L368.790747,328.765418 L298.17859,399.557321 Z M256.665005,210.29084 C237.606206,191.176389 206.684775,191.176389 187.625976,210.29084 C168.553946,229.402638 168.553946,260.397968 187.625976,279.501808 C206.684775,298.625543 237.606206,298.625543 256.65839,279.501808 C275.73042,260.397968 275.737035,229.402638 256.665005,210.29084" id="Fill-302" sketch:type="MSShapeGroup"></path>
        </g>
    </g>
</svg>