<?xml version="1.0" encoding="UTF-8" standalone="no"?>
<svg width="512px" height="512px" viewBox="0 0 512 512" version="1.1" xmlns="http://www.w3.org/2000/svg" xmlns:xlink="http://www.w3.org/1999/xlink" xmlns:sketch="http://www.bohemiancoding.com/sketch/ns">
    <!-- Generator: Sketch 3.2.2 (9983) - http://www.bohemiancoding.com/sketch -->
    <title>complaints</title>
    <desc>Created with Sketch.</desc>
    <defs></defs>
    <g id="Page-1" stroke="none" stroke-width="1" fill="none" fill-rule="evenodd" sketch:type="MSPage">
        <g id="complaints" sketch:type="MSArtboardGroup" fill="#000000">
            <path d="M256,394.258146 C396.206492,394.258146 512,319.655258 512,223.129073 C512,126.602887 396.206492,52 256,52 C115.793508,52 1.11792611e-14,126.602887 1.11792611e-14,223.129073 C1.11792611e-14,281.173521 42.2963932,332.661288 109.415372,363.76384 C104.863537,376.630113 62.4458172,436.782969 45.4317615,459 C124.19873,468.810059 250.889406,394.258146 256,394.258146 Z M120.190432,415.021005 C139.344729,387.509286 159.21387,346.66993 159.21387,346.66993 L146.917386,341.620386 C77.3888184,316.986576 34.6135048,271.367443 34.6135048,223.129073 C34.6135048,149.789975 132.553198,86.6898585 256,86.6898585 C379.446802,86.6898585 477.386495,149.789975 477.386495,223.129073 C477.386495,296.46817 379.446802,359.568287 256,359.568287 C251.336809,359.568287 246.691188,359.478017 242.067288,359.298219 L235.766291,359.053207 C235.766291,359.053207 193.588374,391.937997 120.190432,415.021005 Z" id="Speech-Bubble" sketch:type="MSShapeGroup"></path>
        </g>
    </g>
</svg>