<?xml version="1.0" encoding="UTF-8" standalone="no"?>
<svg width="512px" height="512px" viewBox="0 0 512 512" version="1.1" xmlns="http://www.w3.org/2000/svg" xmlns:xlink="http://www.w3.org/1999/xlink" xmlns:sketch="http://www.bohemiancoding.com/sketch/ns">
    <!-- Generator: Sketch 3.2.2 (9983) - http://www.bohemiancoding.com/sketch -->
    <title>crown</title>
    <desc>Created with Sketch.</desc>
    <defs></defs>
    <g id="Page-1" stroke="none" stroke-width="1" fill="none" fill-rule="evenodd" sketch:type="MSPage">
        <g id="crown" sketch:type="MSArtboardGroup" fill="#000000">
            <path d="M314.882351,148.565898 C313.267668,153.939885 313.416589,159.8791 315.695468,165.425685 C320.898849,178.180547 335.378776,184.263294 348.145467,178.942901 C360.66343,173.75929 366.686618,159.105582 361.481246,146.396985 C356.427193,134.005923 342.574791,127.79568 330.322581,132.190916 L330.322581,102.247901 L289.693183,113.740715 L289.58223,113.632358 C288.439158,112.29518 287.123205,111.100942 285.634372,110.072698 L285.526,109.968951 L301.869617,64 L272.516129,64.0023055 L243.1549,64 L259.501098,109.968951 L259.387565,110.072698 C257.906473,111.100942 256.580199,112.29518 255.450028,113.632358 L255.328753,113.740715 L214.709677,102.247901 L214.709677,155.813407 L255.38294,136.721733 L255.480991,136.807036 C256.685991,138.215683 258.097415,139.467559 259.684299,140.528079 L236.324847,203.493024 C236.296464,203.57141 236.2655,203.647491 236.237117,203.723572 L236.216474,203.790431 L236.221635,203.795042 C235.135329,206.942021 234.554762,210.275744 234.554762,213.736268 C234.554762,230.771455 248.617394,244.832573 266.937521,247.248715 C267.208453,247.287908 267.474224,247.327101 267.750316,247.357073 C269.311397,247.5369 270.89054,247.652174 272.508388,247.652174 L272.52129,247.652174 C274.131397,247.652174 275.71312,247.5369 277.281942,247.357073 C277.547713,247.327101 277.816064,247.287908 278.092156,247.248715 C296.407123,244.832573 310.477497,230.771455 310.477497,213.736268 C310.477497,210.275744 309.886608,206.942021 308.805462,203.795042 L308.810623,203.790431 L308.789981,203.723572 C308.764178,203.647491 308.728053,203.57141 308.69709,203.493024 L285.345379,140.528079 C286.927102,139.467559 288.343687,138.215683 289.546106,136.807036 L289.649318,136.721733 L314.882351,148.565898 L314.882351,148.565898 Z M97.7889439,162.246204 C110.556154,167.568487 125.038659,161.485878 130.238272,148.727283 C135.469724,136.008917 129.486089,121.220774 116.720869,115.922628 C104.208367,110.731088 89.6621851,116.934385 84.4546122,129.701025 C79.2490292,142.41738 85.2704719,157.06271 97.7889439,162.246204 Z M31.7240233,212.334566 C44.4915927,217.654722 58.9764958,211.570234 64.1742656,198.817951 C69.4038748,186.09584 63.4240515,171.30802 50.6564821,166.009989 C38.1456172,160.818563 23.5950455,167.017701 18.3893159,179.794121 C13.1855761,192.498129 19.2051986,207.147163 31.7240233,212.334566 Z M15.2078403,279.11603 C27.9768811,284.438353 42.4592061,278.353686 47.6587548,265.597007 C52.8881516,252.878545 46.9045914,238.088279 34.1415201,232.794116 C21.6311633,227.598515 7.08118248,233.803869 1.87367431,246.574629 C-3.33184398,259.283034 2.69151377,273.932497 15.2078403,279.11603 Z M180.369082,178.942901 C193.134371,184.263294 207.620933,178.180547 212.820575,165.425685 C218.048075,152.703008 212.068388,137.91453 199.303099,132.620287 C186.79053,127.424607 172.24029,133.630055 167.036669,146.396985 C161.829068,159.105582 167.848553,173.75929 180.369082,178.942901 Z M430.729031,162.246204 C417.960435,167.568487 403.478614,161.485878 398.275267,148.727283 C393.050031,136.008917 399.027414,121.220774 411.792031,115.922628 C424.307922,110.731088 438.853416,116.934385 444.060743,129.701025 C449.26807,142.41738 443.244922,157.06271 430.729031,162.246204 Z M480.274158,212.334566 C467.504965,217.654722 453.024457,211.570234 447.824846,198.817951 C442.597377,186.09584 448.575039,171.30802 461.342242,166.009989 C473.854738,160.818563 488.402902,167.017701 493.610473,179.794121 C498.816053,192.498129 492.790634,207.147163 480.274158,212.334566 Z M496.789322,279.11603 C484.02771,284.438353 469.540803,278.353686 464.343029,265.597007 C459.111424,252.878545 465.091253,238.088279 477.856845,232.794116 C490.371702,227.598515 504.918308,233.803869 510.124043,246.574629 C515.333757,259.283034 509.310149,273.932497 496.789322,279.11603 Z M255.958012,434.360114 C322.095683,434.360114 384.699736,439.264669 440.47743,448 C456.313521,375.152367 475.585996,333.405609 495.483871,303.683234 L458.010719,289.092909 C461.741018,309.913082 462.337689,319.603689 458.160992,332.984804 C451.982132,326.375264 446.128126,314.215451 441.555857,295.637152 L423.403798,361.802691 C434.448842,353.476073 442.967979,348.097508 452.713606,347.838737 C435.423405,388.579432 413.846012,399.068118 399.8596,396.236149 C382.777129,392.80683 374.9298,376.141501 377.577251,362.008257 C381.502021,341.97407 400.28832,336.752702 409.061594,360.051756 C425.8391,322.592856 397.373471,310.923982 379.05125,322.00518 C407.192025,291.29367 410.411838,263.994551 387.69856,230.956522 C356.055106,257.426123 355.681634,283.644209 369.924393,320.525107 C351.445269,297.380832 322.687935,309.806672 333.074431,347.205111 C346.404504,324.626747 364.043868,338.827706 361.274872,360.269413 C358.939016,378.966215 336.38927,394.057153 308.314792,391.379962 C268.079274,387.387152 265.68375,357.004547 264.680459,331.860239 C274.576359,329.850533 292.383675,339.884555 307.570058,363.224722 L313.167716,293.047025 C296.642138,311.891349 281.630336,315.465773 264.954486,316.043776 C270.505736,297.09304 296.014529,266.038115 296.014529,266.038115 L258.950207,266.033278 L258.914849,266.033278 L215.981052,266.038115 C215.981052,266.038115 241.492054,297.09304 247.038885,316.043776 C230.367454,315.465773 215.355652,311.891349 198.825654,293.047025 L204.427732,363.224722 C219.618535,339.884555 237.423641,329.850533 247.315121,331.860239 C246.31846,357.004547 243.918516,387.387152 203.682998,391.379962 C175.60631,394.057153 153.060984,378.966215 150.722918,360.269413 C147.951712,338.827706 165.591076,324.626747 178.92115,347.205111 C189.309856,309.806672 160.550311,297.380832 142.075607,320.525107 C156.313946,283.644209 155.940475,257.426123 124.29923,230.956522 C101.583742,263.994551 104.801346,291.29367 132.94212,322.00518 C114.619899,310.923982 86.1564803,322.592856 102.933986,360.051756 C111.709471,336.752702 130.497979,341.97407 134.424958,362.008257 C137.07241,376.141501 129.214031,392.80683 112.14261,396.236149 C98.1561981,399.068118 76.5721753,388.579432 59.2819742,347.838737 C69.0320211,348.097508 77.5423182,353.476073 88.5962019,361.802691 L70.4441426,295.637152 C65.8630349,314.215451 60.0178685,326.375264 53.8367983,332.984804 C49.660101,319.603689 50.2545621,309.913082 53.9782315,289.092909 L16.516129,303.683234 C36.4162135,333.400773 55.6798489,375.142694 71.5137307,447.983071 C127.273745,439.257413 189.849069,434.360114 255.958012,434.360114 Z" id="Fill-2" sketch:type="MSShapeGroup"></path>
        </g>
    </g>
</svg>