<?xml version="1.0" encoding="UTF-8" standalone="no"?>
<svg width="512px" height="512px" viewBox="0 0 512 512" version="1.1" xmlns="http://www.w3.org/2000/svg" xmlns:xlink="http://www.w3.org/1999/xlink" xmlns:sketch="http://www.bohemiancoding.com/sketch/ns">
    <!-- Generator: Sketch 3.2.2 (9983) - http://www.bohemiancoding.com/sketch -->
    <title>helpinghands</title>
    <desc>Created with Sketch.</desc>
    <defs></defs>
    <g id="Page-1" stroke="none" stroke-width="1" fill="none" fill-rule="evenodd" sketch:type="MSPage">
        <g id="helpinghands" sketch:type="MSArtboardGroup" fill="#000000">
            <path d="M260.835086,343.849898 C255.122958,345.04768 249.730934,347.838903 244.996422,352.096005 C241.185453,355.540171 237.938992,360.298871 235.89941,365.682407 C228.277472,368.354716 221.728315,373.705821 217.6405,380.918463 C213.922534,387.454378 212.40204,394.987005 212.988176,402.128298 C208.443996,407.702095 205.868023,414.387193 205.634433,421.627941 C205.191046,435.164616 212.828124,448.882904 226.69858,457.064149 L173.260663,512 L198.600795,512 L244.133439,465.210801 C252.136041,469.163052 269.477896,469.545737 278.767403,461.193689 C282.807636,457.565747 286.075726,454.138878 288.175868,450.417968 C293.26509,448.642915 297.917414,445.717644 301.810572,441.771879 C305.407417,438.115831 307.959598,434.241415 309.687728,430.405916 C313.663075,428.983279 317.878499,426.749868 321.825729,423.24084 C326.828437,418.802125 330.103015,413.453182 332.086363,408.080456 C336.624054,406.048117 341.490502,402.621248 345.917887,396.926375 C355.512358,384.606942 364.823494,365.589438 361.073085,345.227132 C378.518758,337.406951 386.659784,325.798836 394.082738,313.513996 C399.72998,304.173885 402.033431,294.332176 400.988767,285.132599 C408.632334,277.738344 412.813153,268.125814 412.912645,257.579272 C420.964993,249.194793 426.028261,237.839639 424.501278,225.122387 C429.821927,219.334545 435.053898,210.973848 435.845507,200.048945 C437.813715,179.297468 428.076494,169.585482 418.657215,165.04515 L469.770052,108.930975 L510.609278,64.1697909 L512,36.3332337 L392.607664,165.455942 C375.741639,179.450974 325.028933,199.168986 287.098761,200.617568 C254.454633,201.862916 248.227743,187.718702 249.577371,178.19914 L499.47052,-130.690434 L486.938878,-146 L238.551083,162.115555 C212.079773,148.403754 185.597648,174.253375 180.910718,219.563723 C156.223772,225.876946 136.788263,243.331279 131.707692,261.179106 L118.483933,303.812821 C116.619543,309.819031 112.722059,322.339536 119.987124,336.957242 L134.086844,363.699795 L0,512 L24.5852917,512 L143.112482,380.81036 C150.319149,397.112312 170.864208,406.724843 189.4562,397.255008 C199.106906,392.336316 209.936373,379.897969 207.356074,349.255054 C206.038889,333.521724 200.964807,319.788302 196.727754,310.703314 L211.653688,289.621041 C207.237117,276.356786 197.804861,247.086782 199.418358,222.346298 C200.571165,204.671435 210.788542,169.881685 230.4425,178.499666 C228.459153,196.289118 236.822953,219.585344 286.436924,219.585344 C333.935613,219.585344 384.047042,197.169078 405.318824,179.686639 C415.793582,181.708168 418.799965,187.649516 417.712043,198.546312 C416.896643,211.382478 403.884844,218.82646 403.776701,218.897808 C413.628553,238.412586 394.335793,249.462888 393.641513,249.938542 C399.442319,270.160315 379.935435,277.602134 379.245481,277.952389 C384.52071,285.074223 384.434195,294.314879 378.51227,304.106861 C372.445432,314.14748 359.734272,324.661591 345.022461,330.695908 C335.438804,333.657934 322.755761,334.706534 314.521732,331.565057 C308.863676,328.585735 302.827119,326.289624 297.89146,325.065897 C284.049121,321.634703 268.171525,328.499252 260.835086,343.849898 M189.226936,350.779309 C190.583053,366.891 187.451224,377.705637 181.103213,381.09359 C172.711295,385.56906 163.499651,380.55956 160.225073,374.257147 L136.284315,328.868965 C132.56635,321.388228 133.944095,315.371208 135.862557,309.200681 L149.088479,266.569129 C155.129362,251.66603 167.522581,243.123721 181.278406,238.594199 C182.480959,257.51441 188.046012,276.56002 191.480642,286.734687 C187.805934,291.997148 182.191135,299.791384 175.330526,309.217977 C175.330526,309.217977 187.301986,327.859282 189.226936,350.779309 M319.238942,356.134738 C320.229534,354.370495 321.092517,350.883088 321.689468,348.282126 C325.028933,349.544771 339.433617,347.194609 342.643309,345.462796 C346.318017,362.009062 338.248366,377.169446 331.552135,385.765807 C326.958209,391.668238 320.945443,393.263841 316.340702,392.401178 C316.340702,392.401178 317.506486,402.750972 309.743962,409.643628 C304.903469,413.939646 299.251902,415.184994 294.277311,414.452055 C294.277311,414.452055 296.277962,421.463624 288.859333,429.000575 C284.475205,433.443614 279.751507,434.394921 273.550572,433.99494 C273.550572,433.99494 275.507965,440.094119 267.459943,446.941371 C261.349848,452.145456 247.933593,449.226672 235.373834,441.077857 C224.243728,433.852244 216.967848,417.048692 233.963645,408.233963 C230.459803,404.231985 229.830409,396.215056 233.466186,389.886699 C238.025507,381.951929 247.823287,380.438485 253.126633,383.400511 C249.884498,377.284035 253.4489,369.217379 257.156052,365.621869 C261.354173,361.550705 268.467838,359.338915 276.678075,364.158153 C275.027809,360.00483 275.6399,353.884031 278.170452,350.020425 C282.227988,343.828277 287.946604,341.499735 294.303266,342.89859 C301.098989,344.3969 313.974527,351.659268 319.238942,356.134738 Z" id="Fill-154" sketch:type="MSShapeGroup"></path>
        </g>
    </g>
</svg>