<?xml version="1.0" encoding="UTF-8" standalone="no"?>
<svg width="512px" height="512px" viewBox="0 0 512 512" version="1.1" xmlns="http://www.w3.org/2000/svg" xmlns:xlink="http://www.w3.org/1999/xlink" xmlns:sketch="http://www.bohemiancoding.com/sketch/ns">
    <!-- Generator: Sketch 3.2.2 (9983) - http://www.bohemiancoding.com/sketch -->
    <title>justice</title>
    <desc>Created with Sketch.</desc>
    <defs></defs>
    <g id="Page-1" stroke="none" stroke-width="1" fill="none" fill-rule="evenodd" sketch:type="MSPage">
        <g id="justice" sketch:type="MSArtboardGroup" fill="#000000">
            <path d="M255.978989,277.898559 C266.170139,277.896334 274.430927,286.17166 274.429886,296.379608 C274.427573,306.587433 266.164492,314.86461 255.973342,314.866834 C245.781043,314.867663 237.521404,306.593734 237.522445,296.385786 C237.524881,286.176687 245.787839,277.900784 255.978989,277.898559 Z M266.385991,52.8044434 L258.381829,41.1841437 C257.880684,40.4570666 257.119981,40.0662641 256.335509,40.0022988 C255.551488,40.0669418 254.789968,40.4577349 254.288714,41.1847156 L246.281077,52.8073182 C245.812462,53.4885869 245.560151,54.2961067 245.560129,55.1227764 L245.558311,70.4706717 L241.407479,70.4708287 C239.16,70.4716955 237.337552,72.2966826 237.337697,74.547867 L237.335345,88.2217965 C200.45932,96.9258394 173.000481,130.074305 172.993867,169.665209 L172.986704,212.794165 C172.98685,215.04535 174.80825,216.870218 177.055608,216.870625 L256.307465,216.857245 L335.557927,216.845017 C337.805407,216.84415 339.627855,215.019163 339.628981,212.768101 L339.636267,169.637871 C339.642758,130.048241 312.192943,96.908259 275.320951,88.2152965 L275.323303,74.541367 C275.323157,72.2901826 273.501757,70.4653148 271.253005,70.4660592 L267.103445,70.4663387 L267.105139,55.1197172 C267.105285,54.2917737 266.854427,53.484659 266.385991,52.8044434 Z M221.126911,200.579679 C221.127057,202.830864 219.304609,204.655851 217.055857,204.656595 L193.227391,204.660914 C190.978762,204.660385 189.157238,202.836791 189.157215,200.584333 L189.159396,189.578107 C189.159127,187.328196 190.981698,185.501935 193.230327,185.502465 L217.058793,185.498146 C219.307545,185.497401 221.128946,187.322269 221.129092,189.573454 L221.126911,200.579679 Z M291.514031,189.579078 C291.515157,187.328017 293.337728,185.501756 295.585085,185.502163 L319.414823,185.497966 C321.662303,185.497099 323.483704,187.321967 323.48385,189.573151 L323.481669,200.579377 C323.481815,202.830561 321.659367,204.655549 319.411887,204.656415 L295.582149,204.660612 C293.334792,204.660205 291.511997,202.836489 291.513122,200.585427 L291.514031,189.579078 Z M268.010965,185.497523 C270.258322,185.49793 272.079723,187.322798 272.079869,189.573982 L272.077688,200.580208 C272.077834,202.831392 270.255386,204.656379 268.008028,204.655972 L256.319064,204.657967 L244.631372,204.660083 C242.38262,204.660828 240.561219,202.83596 240.561073,200.584776 L240.563254,189.57855 C240.563108,187.327366 242.385556,185.502379 244.634308,185.501634 L256.322,185.499517 L268.010965,185.497523 Z M507.92107,439.23117 L491.270076,439.233637 L491.27321,417.233924 C491.273064,414.982739 489.451664,413.157872 487.204306,413.157465 L477.992542,413.158856 L478.015764,268.544935 L487.227529,268.543544 C489.475009,268.542677 491.297457,266.71769 491.298583,264.466628 L491.299945,251.416143 C491.300186,249.347557 489.754312,247.607074 487.703166,247.36843 L364.024288,232.934496 C363.866842,232.916764 363.709932,232.906798 363.552041,232.907022 L148.489177,232.941475 C148.331285,232.941699 148.173807,232.950963 148.018014,232.969389 L24.3345601,247.441531 C22.2834443,247.682437 20.7360589,249.423344 20.7359409,251.490656 L20.7333067,264.541019 C20.7334526,266.792203 22.5548532,268.617071 24.8022105,268.617478 L34.0166409,268.615058 L33.9932959,413.230252 L24.7789881,413.231398 C22.5315081,413.232265 20.7090602,415.057252 20.7079344,417.308314 L20.704677,439.309301 L4.05368278,439.311768 C1.80632544,439.311361 -0.0161225509,441.136348 -0.0173709641,443.388683 L-0.0208709919,467.964801 C-0.020725046,470.215985 1.80067553,472.040853 4.04815552,472.039986 L507.915543,471.959389 C510.164294,471.958644 511.986742,470.133657 511.986596,467.882473 L511.990096,443.306356 C511.991222,441.055294 510.16855,439.230303 507.92107,439.23117 Z M76.722945,414.304348 C76.7218192,416.55541 74.8993712,418.380397 72.6518912,418.381264 L63.2590996,418.383223 C61.0104706,418.382694 59.18907,416.557826 59.1889241,414.306642 L59.2080576,294.608192 C59.2091834,292.357131 61.0316314,290.532143 63.2789887,290.53255 L72.673052,290.530714 C74.920532,290.529847 76.7419326,292.354715 76.7420785,294.605899 L76.722945,414.304348 Z M113.382051,414.304613 C113.382197,416.555797 111.559749,418.380784 109.312269,418.381651 L99.9182058,418.383488 C97.6708485,418.383081 95.8494479,416.558213 95.849302,414.307029 L95.8684355,294.60858 C95.8682896,292.357395 97.6907376,290.532408 99.9394893,290.531664 L109.332158,290.530979 C111.579638,290.530112 113.40231,292.355102 113.401185,294.606164 L113.382051,414.304613 Z M150.042429,414.305 C150.041303,416.556062 148.218855,418.381049 145.971375,418.381916 L136.577435,418.382479 C134.329955,418.383346 132.508554,416.558478 132.508408,414.307294 L132.527542,294.608844 C132.527396,292.35766 134.351115,290.532796 136.598595,290.531929 L145.991387,290.52997 C148.240016,290.530499 150.061539,292.354093 150.061562,294.606551 L150.042429,414.305 Z M215.706273,420.274923 C215.705024,422.527258 213.882576,424.352245 211.635219,424.351838 L207.626772,424.352849 C205.379415,424.352442 203.557892,422.528848 203.557746,420.277664 L203.571099,338.41529 C203.570954,336.164105 205.393524,334.337844 207.642153,334.338374 L211.649328,334.337241 C213.89808,334.336496 215.719358,336.162638 215.719626,338.412548 L215.706273,420.274923 Z M308.428372,420.275067 C308.428518,422.526251 306.60607,424.351238 304.35859,424.352105 L300.350143,424.353116 C298.102786,424.352709 296.279991,422.528993 296.281239,420.276657 L296.293198,338.415434 C296.294324,336.164372 298.116895,334.338111 300.364252,334.338518 L304.372699,334.337508 C306.620179,334.336641 308.442851,336.161631 308.441725,338.412693 L308.428372,420.275067 Z M328.608666,324.321853 L183.383125,324.344078 C180.799393,324.344708 179.631421,321.105549 181.620881,319.452206 L253.40633,259.752346 C254.914491,258.49878 257.099044,258.498282 258.605833,259.751598 L330.373686,319.427637 C332.361784,321.080851 331.19367,324.321345 328.608666,324.321853 L328.608666,324.321853 Z M370.001126,414.304409 C370,416.555471 368.177552,418.380458 365.930072,418.381325 L356.536009,418.383161 C354.288652,418.382754 352.467251,416.557886 352.467105,414.306702 L352.486239,294.608253 C352.487365,292.357191 354.309813,290.532204 356.557293,290.531337 L365.949962,290.530652 C368.198713,290.529907 370.020114,292.354775 370.02026,294.60596 L370.001126,414.304409 Z M406.660232,414.304673 C406.660378,416.555858 404.83793,418.380845 402.59045,418.381712 L393.19651,418.382275 C390.94903,418.383141 389.126357,416.558151 389.127483,414.307089 L389.146617,294.60864 C389.146471,292.357456 390.968919,290.532469 393.21767,290.531724 L402.610339,290.531039 C404.857819,290.530172 406.680492,292.355162 406.679366,294.606224 L406.660232,414.304673 Z M443.32061,414.305061 C443.319607,416.554849 441.497036,418.38111 439.249556,418.381977 L429.855616,418.382539 C427.608136,418.383406 425.786735,416.558538 425.786589,414.307354 L425.805723,294.608905 C425.805577,292.357721 427.628025,290.532734 429.876777,290.531989 L439.269568,290.53003 C441.516925,290.530437 443.33972,292.354153 443.339744,294.606612 L443.32061,414.305061 Z" id="Fill-250" sketch:type="MSShapeGroup"></path>
        </g>
    </g>
</svg>