<?xml version="1.0" encoding="UTF-8" standalone="no"?>
<svg width="512px" height="512px" viewBox="0 0 512 512" version="1.1" xmlns="http://www.w3.org/2000/svg" xmlns:xlink="http://www.w3.org/1999/xlink" xmlns:sketch="http://www.bohemiancoding.com/sketch/ns">
    <!-- Generator: Sketch 3.2.2 (9983) - http://www.bohemiancoding.com/sketch -->
    <title>lock</title>
    <desc>Created with Sketch.</desc>
    <defs></defs>
    <g id="Page-1" stroke="none" stroke-width="1" fill="none" fill-rule="evenodd" sketch:type="MSPage">
        <g id="lock" sketch:type="MSArtboardGroup" fill="#000000">
            <path d="M428.9,512 L84.1,512 C62.55,512 41,490.666667 41,469.333333 L41,256 C41,234.666667 62.55,213.333333 84.1,213.333333 L105.65,213.333333 L105.65,149.333333 C105.65,64 170.3,0 256.5,0 C342.7,0 407.35,64 407.35,149.333333 L407.35,213.333333 L428.9,213.333333 C450.45,213.333333 472,234.666667 472,256 L472,469.333333 C472,490.666667 450.45,512 428.9,512 L428.9,512 Z M342.7,149.333333 C342.7,106.666667 299.6,64 256.5,64 C213.4,64 170.3,106.666667 170.3,149.333333 L170.3,213.333333 L342.7,213.333333 L342.7,149.333333 L342.7,149.333333 Z" id="Shape-2" sketch:type="MSShapeGroup"></path>
        </g>
    </g>
</svg>