<?xml version="1.0" encoding="UTF-8" standalone="no"?>
<svg width="512px" height="512px" viewBox="0 0 512 512" version="1.1" xmlns="http://www.w3.org/2000/svg" xmlns:xlink="http://www.w3.org/1999/xlink" xmlns:sketch="http://www.bohemiancoding.com/sketch/ns">
    <!-- Generator: Sketch 3.2.2 (9983) - http://www.bohemiancoding.com/sketch -->
    <title>money</title>
    <desc>Created with Sketch.</desc>
    <defs></defs>
    <g id="Page-1" stroke="none" stroke-width="1" fill="none" fill-rule="evenodd" sketch:type="MSPage">
        <g id="money" sketch:type="MSArtboardGroup" fill="#000000">
            <path d="M70.9956277,292.679767 L70.9956277,265.704512 L132.077452,265.704512 L132.077452,240.703057 L70.9956277,240.703057 L70.9956277,209.780204 C70.9956277,189.713246 79.6302311,178.528384 96.8994379,178.528384 C109.691443,178.528384 118.965646,183.133916 127.60025,195.634643 L156.062461,174.25182 C140.392255,153.197962 120.564647,143 92.7420362,143 C48.9294191,143 26.5434104,171.291121 26.5434104,209.451237 L26.5434104,240.703057 L4.79700187,240.703057 L4.79700187,265.704512 L26.5434104,265.704512 L26.5434104,294.653566 C26.5434104,317.02329 23.6652092,327.221252 0,334.787482 L0,369 L144.869457,369 L149.986259,332.813683 L50.8482199,332.813683 C67.4778264,323.60262 70.9956277,311.759825 70.9956277,292.679767 L70.9956277,292.679767 Z M244.966896,292.679767 L244.966896,265.704512 L306.04872,265.704512 L306.04872,240.703057 L244.966896,240.703057 L244.966896,209.780204 C244.966896,189.713246 253.601499,178.528384 270.870706,178.528384 C283.662711,178.528384 292.936914,183.133916 301.571518,195.634643 L330.033729,174.25182 C314.363523,153.197962 294.535915,143 266.713304,143 C222.900687,143 200.514678,171.291121 200.514678,209.451237 L200.514678,240.703057 L178.76827,240.703057 L178.76827,265.704512 L200.514678,265.704512 L200.514678,294.653566 C200.514678,317.02329 197.636477,327.221252 173.971268,334.787482 L173.971268,369 L318.840725,369 L323.957527,332.813683 L224.819488,332.813683 C241.449094,323.60262 244.966896,311.759825 244.966896,292.679767 L244.966896,292.679767 Z M418.938164,292.679767 L418.938164,265.704512 L480.019988,265.704512 L480.019988,240.703057 L418.938164,240.703057 L418.938164,209.780204 C418.938164,189.713246 427.572767,178.528384 444.841974,178.528384 C457.633979,178.528384 466.908182,183.133916 475.542786,195.634643 L504.004997,174.25182 C488.334791,153.197962 468.507183,143 440.684572,143 C396.871955,143 374.485946,171.291121 374.485946,209.451237 L374.485946,240.703057 L352.739538,240.703057 L352.739538,265.704512 L374.485946,265.704512 L374.485946,294.653566 C374.485946,317.02329 371.607745,327.221252 347.942536,334.787482 L347.942536,369 L492.811993,369 L497.928795,332.813683 L398.790756,332.813683 C415.420362,323.60262 418.938164,311.759825 418.938164,292.679767 L418.938164,292.679767 Z" id="£££" sketch:type="MSShapeGroup"></path>
        </g>
    </g>
</svg>