<?xml version="1.0" encoding="UTF-8" standalone="no"?>
<svg width="512px" height="512px" viewBox="0 0 512 512" version="1.1" xmlns="http://www.w3.org/2000/svg" xmlns:xlink="http://www.w3.org/1999/xlink" xmlns:sketch="http://www.bohemiancoding.com/sketch/ns">
    <!-- Generator: Sketch 3.2.2 (9983) - http://www.bohemiancoding.com/sketch -->
    <title>phone</title>
    <desc>Created with Sketch.</desc>
    <defs></defs>
    <g id="Page-1" stroke="none" stroke-width="1" fill="none" fill-rule="evenodd" sketch:type="MSPage">
        <g id="phone" sketch:type="MSArtboardGroup" fill="#000000">
            <path d="M281.690358,396.457759 C257.418832,391.307647 129.003358,264.71607 129.003358,239.795097 C151.114561,240.265066 156.179291,248.473759 174.997336,236.724523 C181.1132,232.494798 238.978687,175.628493 238.978687,175.628493 C256.385378,158.239623 255.914927,129.571486 238.037785,111.712647 L140.183953,13.9589991 C122.306811,-3.89984039 93.6092928,-4.36980985 76.2026016,13.0190601 C76.2026016,13.0190601 19.2780167,70.8253036 15.0439567,76.9349066 C-7.06724566,111.242677 -0.945024525,154.329062 12.22125,192.547394 C25.3875246,230.765725 49.8573392,299.70043 141.595306,391.344475 C244.153649,493.797817 302.763802,503.290899 341.066579,508.83684 C379.369356,514.38278 407.400186,514.946443 435.627253,497.087603 C441.743118,492.857878 499.608605,435.991574 499.608605,435.991574 C517.015296,418.602704 516.544845,389.934567 498.667702,372.075727 L406.100824,279.783988 C388.223682,261.925148 359.526164,261.455179 342.119472,278.844049 C342.119472,278.844049 285.194888,336.650292 280.960828,342.759895 C266.847294,364.84846 281.690358,396.457759 281.690358,396.457759 Z" id="call" sketch:type="MSShapeGroup"></path>
        </g>
    </g>
</svg>