<?xml version="1.0" encoding="UTF-8" standalone="no"?>
<svg width="512px" height="512px" viewBox="0 0 512 512" version="1.1" xmlns="http://www.w3.org/2000/svg" xmlns:xlink="http://www.w3.org/1999/xlink" xmlns:sketch="http://www.bohemiancoding.com/sketch/ns">
    <!-- Generator: Sketch 3.2.2 (9983) - http://www.bohemiancoding.com/sketch -->
    <title>process</title>
    <desc>Created with Sketch.</desc>
    <defs></defs>
    <g id="Page-1" stroke="none" stroke-width="1" fill="none" fill-rule="evenodd" sketch:type="MSPage">
        <g id="process" sketch:type="MSArtboardGroup" fill="#000000">
            <path d="M254.414384,241.563791 L115.52106,306.220762 L115.52106,371.701493 L87.9460616,371.701493 L87.9460616,282.601753 L238.515411,213.444137 L238.515411,140.298507 L254.414384,140.334547 L270.313356,140.298507 L270.313356,213.444137 L420.882705,282.601753 L420.882705,371.701493 L393.307707,371.701493 L393.307707,306.220762 L254.414384,241.563791 Z M147.287671,0 L357.69863,0 L357.69863,140.298507 L147.287671,140.298507 L147.287671,0 Z M175.342466,28.0597015 L329.643836,28.0597015 L329.643836,112.238806 L175.342466,112.238806 L175.342466,28.0597015 Z M0,371.701493 L210.410959,371.701493 L210.410959,512 L0,512 L0,371.701493 Z M28.0547945,399.761194 L182.356164,399.761194 L182.356164,483.940299 L28.0547945,483.940299 L28.0547945,399.761194 Z M301.589041,371.701493 L512,371.701493 L512,512 L301.589041,512 L301.589041,371.701493 Z M329.643836,399.761194 L483.945205,399.761194 L483.945205,483.940299 L329.643836,483.940299 L329.643836,399.761194 Z" id="Rectangle-68" sketch:type="MSShapeGroup"></path>
        </g>
    </g>
</svg>