<?xml version="1.0" encoding="UTF-8" standalone="no"?>
<svg width="512px" height="512px" viewBox="0 0 512 512" version="1.1" xmlns="http://www.w3.org/2000/svg" xmlns:xlink="http://www.w3.org/1999/xlink" xmlns:sketch="http://www.bohemiancoding.com/sketch/ns">
    <!-- Generator: Sketch 3.2.2 (9983) - http://www.bohemiancoding.com/sketch -->
    <title>support</title>
    <desc>Created with Sketch.</desc>
    <defs></defs>
    <g id="Page-1" stroke="none" stroke-width="1" fill="none" fill-rule="evenodd" sketch:type="MSPage">
        <g id="support" sketch:type="MSArtboardGroup" fill="#000000">
            <path d="M122.510619,216.397521 C68.4645816,216.397521 24.496217,167.86034 24.496217,108.198761 C24.496217,48.5391858 68.4645816,-1.42108547e-14 122.510619,-1.42108547e-14 C176.556656,-1.42108547e-14 220.525021,48.5391858 220.525021,108.198761 C220.525021,167.86034 176.556656,216.397521 122.510619,216.397521 M122.510619,27.4852237 C82.196296,27.4852237 49.3952785,63.6951516 49.3952785,108.198761 C49.3952785,152.70237 82.196296,188.914302 122.510619,188.914302 C162.826758,188.914302 195.627775,152.70237 195.627775,108.198761 C195.627775,63.6951516 162.826758,27.4852237 122.510619,27.4852237 Z M345.400988,222.904563 C294.723861,222.904563 253.492395,177.394566 253.492395,121.449806 C253.492395,65.5050465 294.723861,19.9950492 345.400988,19.9950492 C396.078115,19.9950492 437.309581,65.5050465 437.309581,121.449806 C437.309581,177.394566 396.078115,222.904563 345.400988,222.904563 Z M345.400988,47.3339256 C308.379298,47.3339256 278.25888,80.5848316 278.25888,121.449806 C278.25888,162.312776 308.379298,195.565687 345.400988,195.565687 C382.422678,195.565687 412.543096,162.312776 412.543096,121.449806 C412.543096,80.5848316 382.422678,47.3339256 345.400988,47.3339256 Z M476.530597,254.180181 C480.544231,267.918784 481.185323,282.984536 478.326744,297.226332 C483.991235,308.944139 487.107704,323.360349 487.162187,339.189914 L477.177137,512 L501.989025,512 L511.905062,340.478973 C513.158188,313.627252 502.039876,273.822794 476.530597,254.180181 Z M312.893819,400.626305 L312.893819,489.132334 L337.66212,489.132334 L337.66212,390.977408 L312.893819,400.626305 Z M284.533407,378.253173 C298.908029,378.253173 309.307156,376.430848 318.257015,372.333124 C347.153366,359.143825 437.759798,318.868249 438.833127,318.296893 C455.884716,309.233425 462.874978,280.413033 452.156214,254.95061 C441.359356,229.297734 423.087331,225.841533 413.579921,225.841533 L281.56586,252.143949 C264.924715,250.091078 148.289593,235.835248 103.057206,232.898279 C71.4421171,230.869464 46.2052565,239.816696 28.1202927,259.557542 C-1.81851324,292.229073 -0.0314471237,342.133459 0.0430139647,343.590917 L0.0430139647,511.998547 L24.8113145,511.998547 L24.7967855,342.981471 C24.7840727,342.584529 23.5527405,302.848273 45.6495225,278.87338 C58.5203941,264.898216 77.3100141,258.581225 101.606122,260.191046 L282.426703,279.757478 L414.544283,253.212485 C420.897085,253.62346 425.956807,258.184283 429.981338,267.125501 C434.601558,277.377831 431.490537,290.994143 429.372937,293.030976 C428.461242,293.435937 337.785798,333.833763 308.782296,347.07719 C302.974331,349.731489 295.497348,350.914296 284.744077,350.914296 L179.61955,348.929586 L169.550957,511.998547 L194.371926,511.998547 L202.727913,376.713519 L284.533407,378.253173 Z" id="Fill-1" sketch:type="MSShapeGroup"></path>
        </g>
    </g>
</svg>