<?xml version="1.0" encoding="UTF-8" standalone="no"?>
<svg width="50px" height="50px" viewBox="0 0 50 50" version="1.1" xmlns="http://www.w3.org/2000/svg" xmlns:xlink="http://www.w3.org/1999/xlink" xmlns:sketch="http://www.bohemiancoding.com/sketch/ns">
    <!-- Generator: Sketch 3.2.2 (9983) - http://www.bohemiancoding.com/sketch -->
    <title>pound</title>
    <desc>Created with Sketch.</desc>
    <defs></defs>
    <g id="Page-1" stroke="none" stroke-width="1" fill="none" fill-rule="evenodd" sketch:type="MSPage">
        <path d="M6.93316677,28.5705968 L6.93316677,25.944687 L12.8981886,25.944687 L12.8981886,23.510917 L6.93316677,23.510917 L6.93316677,20.5007278 C6.93316677,18.5473071 7.77638976,17.4585153 9.46283573,17.4585153 C10.712055,17.4585153 11.6177389,17.9068413 12.4609619,19.1237263 L15.2404747,17.0422125 C13.7101811,14.992722 11.7738913,14 9.05683948,14 C4.77826359,14 2.59212992,16.7540029 2.59212992,20.4687045 L2.59212992,23.510917 L0.468457214,23.510917 L0.468457214,25.944687 L2.59212992,25.944687 L2.59212992,28.7627365 C2.59212992,30.9403202 2.31105559,31.9330422 0,32.6695779 L0,36 L14.1474079,36 L14.6470956,32.4774381 L4.96564647,32.4774381 C6.58963148,31.580786 6.93316677,30.4279476 6.93316677,28.5705968 L6.93316677,28.5705968 Z M23.9225484,28.5705968 L23.9225484,25.944687 L29.8875703,25.944687 L29.8875703,23.510917 L23.9225484,23.510917 L23.9225484,20.5007278 C23.9225484,18.5473071 24.7657714,17.4585153 26.4522174,17.4585153 C27.7014366,17.4585153 28.6071205,17.9068413 29.4503435,19.1237263 L32.2298563,17.0422125 C30.6995628,14.992722 28.763273,14 26.0462211,14 C21.7676452,14 19.5815116,16.7540029 19.5815116,20.4687045 L19.5815116,23.510917 L17.4578389,23.510917 L17.4578389,25.944687 L19.5815116,25.944687 L19.5815116,28.7627365 C19.5815116,30.9403202 19.3004372,31.9330422 16.9893816,32.6695779 L16.9893816,36 L31.1367895,36 L31.6364772,32.4774381 L21.9550281,32.4774381 C23.5790131,31.580786 23.9225484,30.4279476 23.9225484,28.5705968 L23.9225484,28.5705968 Z M40.91193,28.5705968 L40.91193,25.944687 L46.8769519,25.944687 L46.8769519,23.510917 L40.91193,23.510917 L40.91193,20.5007278 C40.91193,18.5473071 41.755153,17.4585153 43.441599,17.4585153 C44.6908182,17.4585153 45.5965022,17.9068413 46.4397252,19.1237263 L49.219238,17.0422125 C47.6889444,14.992722 45.7526546,14 43.0356027,14 C38.7570269,14 36.5708932,16.7540029 36.5708932,20.4687045 L36.5708932,23.510917 L34.4472205,23.510917 L34.4472205,25.944687 L36.5708932,25.944687 L36.5708932,28.7627365 C36.5708932,30.9403202 36.2898189,31.9330422 33.9787633,32.6695779 L33.9787633,36 L48.1261711,36 L48.6258588,32.4774381 L38.9444097,32.4774381 C40.5683948,31.580786 40.91193,30.4279476 40.91193,28.5705968 L40.91193,28.5705968 Z" id="£££" fill="#000000" sketch:type="MSShapeGroup"></path>
    </g>
</svg>